<svg width="26" height="25" viewBox="0 0 26 25" fill="none" xmlns="http://www.w3.org/2000/svg">
<path d="M13.2019 9.375C14.4949 9.375 15.7348 8.88114 16.6491 8.00206C17.5633 7.12299 18.0769 5.9307 18.0769 4.6875C18.0769 3.4443 17.5633 2.25201 16.6491 1.37294C15.7348 0.49386 14.4949 0 13.2019 0C11.909 0 10.669 0.49386 9.7548 1.37294C8.84056 2.25201 8.32694 3.4443 8.32694 4.6875C8.32694 5.9307 8.84056 7.12299 9.7548 8.00206C10.669 8.88114 11.909 9.375 13.2019 9.375ZM20.8963 18.75C21.9006 18.75 22.6724 17.8734 22.3133 16.9703C21.6088 15.1954 20.3604 13.6681 18.7332 12.5906C17.106 11.513 15.1769 10.9361 13.2011 10.9361C11.2254 10.9361 9.29623 11.513 7.66905 12.5906C6.04188 13.6681 4.79341 15.1954 4.08894 16.9703C3.73144 17.8734 4.50169 18.75 5.50594 18.75H20.8963Z" fill="#012970"/>
</svg>
