<svg width="18" height="17" viewBox="0 0 18 17" fill="none" xmlns="http://www.w3.org/2000/svg">
<path d="M6.70469 0.534375C6.72095 0.388021 6.79667 0.252336 6.91719 0.15361C7.0377 0.0548837 7.19443 0.000145251 7.357 0H10.108C10.2706 0.000145251 10.4273 0.0548837 10.5478 0.15361C10.6683 0.252336 10.7441 0.388021 10.7603 0.534375L11.0044 2.74075C11.7045 2.9749 12.3552 3.31546 12.9286 3.74775L15.1638 2.83456C15.3122 2.77391 15.4802 2.76536 15.6352 2.81057C15.7902 2.85578 15.9211 2.95153 16.0024 3.07919L17.3766 5.23331C17.4582 5.36067 17.4845 5.51089 17.4506 5.65483C17.4166 5.79877 17.3248 5.92616 17.1929 6.01231L15.2018 7.30669C15.3276 7.9724 15.3276 8.6526 15.2018 9.31831L17.1916 10.6127C17.3237 10.6987 17.4158 10.826 17.45 10.9699C17.4842 11.1139 17.458 11.2642 17.3766 11.3917L16.0024 13.5458C15.9211 13.6735 15.7902 13.7692 15.6352 13.8144C15.4802 13.8596 15.3122 13.8511 15.1638 13.7904L12.9286 12.8784C12.3603 13.3059 11.7106 13.6491 11.0044 13.8843L10.7603 16.0906C10.7441 16.237 10.6683 16.3727 10.5478 16.4714C10.4273 16.5701 10.2706 16.6249 10.108 16.625H7.357C7.19443 16.6249 7.0377 16.5701 6.91719 16.4714C6.79667 16.3727 6.72095 16.237 6.70469 16.0906L6.46057 13.8843C5.76049 13.6502 5.10976 13.3096 4.53644 12.8772L2.30125 13.7904C2.15283 13.8511 1.98478 13.8596 1.82978 13.8144C1.67478 13.7692 1.54389 13.6735 1.46257 13.5458L0.0883794 11.3917C0.00684738 11.2643 -0.0194976 11.1141 0.0144544 10.9702C0.0484065 10.8262 0.140235 10.6988 0.272129 10.6127L2.26319 9.31831C2.13757 8.65259 2.13757 7.97241 2.26319 7.30669L0.273442 6.01231C0.14133 5.92634 0.0492381 5.79902 0.0150408 5.65507C-0.0191565 5.51112 0.00698089 5.36081 0.0883794 5.23331L1.46125 3.07919C1.54258 2.95153 1.67347 2.85578 1.82847 2.81057C1.98347 2.76536 2.15152 2.77391 2.29994 2.83456L4.53513 3.74775C5.10344 3.32025 5.75313 2.97588 6.45925 2.74075L6.70469 0.534375ZM6.47238 9.52019L6.4435 9.47625C6.09593 8.93045 6.00223 8.28208 6.18302 7.67378C6.36381 7.06548 6.80428 6.54707 7.40754 6.23259C8.01079 5.91812 8.7274 5.83335 9.39974 5.99692C10.0721 6.16049 10.6451 6.55901 10.9926 7.10481L11.0215 7.14875C11.3691 7.69455 11.4628 8.34292 11.282 8.95122C11.1012 9.55952 10.6607 10.0779 10.0575 10.3924C9.45422 10.7069 8.7376 10.7917 8.06527 10.6281C7.39293 10.4645 6.81995 10.066 6.47238 9.52019Z" fill="#012970"/>
</svg>
